<?xml version="1.0" encoding="UTF-8"?>
<!DOCTYPE svg PUBLIC "-//W3C//DTD SVG 1.1//EN" "http://www.w3.org/Graphics/SVG/1.1/DTD/svg11.dtd">
<!-- Creator: CorelDRAW 2020 (64-Bit) -->
<svg xmlns="http://www.w3.org/2000/svg" xml:space="preserve" width="25px" height="81px" version="1.1" style="shape-rendering:geometricPrecision; text-rendering:geometricPrecision; image-rendering:optimizeQuality; fill-rule:evenodd; clip-rule:evenodd"
viewBox="0 0 21.67 69.932"
 xmlns:xlink="http://www.w3.org/1999/xlink"
 xmlns:xodm="http://www.corel.com/coreldraw/odm/2003">
 <defs>
  <style type="text/css">
   <![CDATA[
    .fil0 {fill:#191919}
    .fil1 {fill:#E1DECE;fill-rule:nonzero}
   ]]>
  </style>
 </defs>
 <g id="Слой_x0020_1">
  <metadata id="CorelCorpID_0Corel-Layer"/>
  <rect class="fil0" width="21.67" height="69.932" rx="3.433" ry="3.215"/>
  <g id="_1595448973968">
   <polygon class="fil1" points="10.666,9.735 4.551,15.85 16.781,15.85 "/>
   <path class="fil1" d="M14.332 60.197l-7.25 0 0 -2.829c0,-0.966 0.169,-1.707 0.506,-2.225 0.336,-0.515 0.83,-0.773 1.483,-0.773 0.336,0 0.638,0.101 0.908,0.302 0.27,0.201 0.476,0.499 0.62,0.89 0.103,-0.437 0.302,-0.789 0.602,-1.055 0.3,-0.265 0.657,-0.398 1.074,-0.398 0.666,0 1.174,0.245 1.528,0.734 0.353,0.488 0.529,1.181 0.529,2.074l0 3.28zm-3.186 -1.241l2.184 0 0 -2.053c0,-0.517 -0.097,-0.906 -0.289,-1.162 -0.192,-0.257 -0.462,-0.385 -0.81,-0.385 -0.723,0 -1.085,0.531 -1.085,1.595l0 2.005zm-0.988 0l0 -1.602c0,-1.163 -0.341,-1.744 -1.021,-1.744 -0.68,0 -1.03,0.549 -1.053,1.65l0 1.696 2.074 0zm4.174 -6.605l-7.25 0 0 -2.828c0,-0.966 0.169,-1.708 0.506,-2.225 0.336,-0.515 0.83,-0.774 1.483,-0.774 0.336,0 0.638,0.101 0.908,0.303 0.27,0.201 0.476,0.499 0.62,0.89 0.103,-0.437 0.302,-0.79 0.602,-1.055 0.3,-0.266 0.657,-0.398 1.074,-0.398 0.666,0 1.174,0.244 1.528,0.734 0.353,0.488 0.529,1.181 0.529,2.074l0 3.279zm-3.186 -1.24l2.184 0 0 -2.053c0,-0.517 -0.097,-0.906 -0.289,-1.163 -0.192,-0.256 -0.462,-0.384 -0.81,-0.384 -0.723,0 -1.085,0.531 -1.085,1.595l0 2.005zm-0.988 0l0 -1.602c0,-1.163 -0.341,-1.744 -1.021,-1.744 -0.68,0 -1.03,0.549 -1.053,1.65l0 1.696 2.074 0zm4.311 -9.505c0,0.982 -0.322,1.783 -0.968,2.401 -0.647,0.616 -1.51,0.925 -2.593,0.925l-0.228 0c-0.719,0 -1.362,-0.138 -1.927,-0.412 -0.566,-0.275 -1.01,-0.659 -1.328,-1.154 -0.32,-0.494 -0.481,-1.03 -0.481,-1.606 0,-0.943 0.312,-1.676 0.932,-2.2 0.623,-0.521 1.513,-0.785 2.671,-0.785l0.517 0 0 4.916c0.714,-0.018 1.291,-0.226 1.73,-0.627 0.439,-0.4 0.659,-0.908 0.659,-1.526 0,-0.437 -0.089,-0.808 -0.267,-1.113 -0.179,-0.304 -0.415,-0.57 -0.708,-0.798l0.591 -0.758c0.934,0.609 1.4,1.522 1.4,2.737zm-6.508 0.154c0,0.501 0.183,0.92 0.549,1.261 0.366,0.338 0.879,0.549 1.538,0.629l0 -3.634 -0.094 0c-0.634,0.036 -1.124,0.206 -1.472,0.51 -0.347,0.305 -0.521,0.716 -0.521,1.234zm2.826 -10.546c1.106,0 1.994,0.254 2.669,0.757 0.675,0.506 1.013,1.19 1.013,2.053 0,0.879 -0.279,1.572 -0.837,2.078l3.488 0 0 1.241 -10.038 0 0 -1.133 0.801 -0.062c-0.625,-0.504 -0.939,-1.206 -0.939,-2.103 0,-0.872 0.33,-1.563 0.987,-2.069 0.657,-0.508 1.57,-0.762 2.742,-0.762l0.114 0zm-0.14 1.24c-0.817,0 -1.462,0.174 -1.936,0.524 -0.474,0.348 -0.709,0.826 -0.709,1.435 0,0.751 0.332,1.314 0.998,1.689l3.462 0c0.662,-0.371 0.991,-0.938 0.991,-1.703 0,-0.595 -0.235,-1.068 -0.707,-1.418 -0.471,-0.351 -1.169,-0.527 -2.099,-0.527zm-0.92 -5.149l-2.645 -1.609 0 -1.449 3.584 2.376 3.666 -2.449 0 1.435 -2.714 1.677 2.714 1.676 0 1.442 -3.666 -2.449 -3.584 2.375 0 -1.435 2.645 -1.59z"/>
  </g>
 </g>
</svg>
