<?xml version="1.0" encoding="UTF-8"?>
<!DOCTYPE svg PUBLIC "-//W3C//DTD SVG 1.1//EN" "http://www.w3.org/Graphics/SVG/1.1/DTD/svg11.dtd">
<!-- Creator: CorelDRAW 2020 (64-Bit) -->
<svg xmlns="http://www.w3.org/2000/svg" xml:space="preserve" width="84px" height="61px" version="1.1" style="shape-rendering:geometricPrecision; text-rendering:geometricPrecision; image-rendering:optimizeQuality; fill-rule:evenodd; clip-rule:evenodd"
viewBox="0 0 86.764 63.055"
 xmlns:xlink="http://www.w3.org/1999/xlink"
 xmlns:xodm="http://www.corel.com/coreldraw/odm/2003">
 <defs>
  <style type="text/css">
   <![CDATA[
    .fil0 {fill:#E1DECE}
   ]]>
  </style>
 </defs>
 <g id="Слой_x0020_1">
  <metadata id="CorelCorpID_0Corel-Layer"/>
  <path class="fil0" d="M20.757 53.348l-0.036 -0.242c0.088,-0.003 0.09,-0.017 0.182,0.017 0.195,0.07 0.18,0.193 0.192,0.289 -0.181,0.014 -0.214,0.009 -0.338,-0.064zm-0.303 -1.111c0.094,0.15 0.074,0.29 0.097,0.513 -0.475,-0.085 -0.534,-0.671 -0.097,-0.513zm17.215 -2.928l0.122 0.042c0.113,0.072 0.152,0.204 0.198,0.347 0.065,0.203 0.1,0.499 0.035,0.645 -0.214,0.037 -0.138,0.076 -0.227,-0.048 -0.065,-0.09 -0.113,-0.846 -0.128,-0.986zm-16.76 2.162c0.003,0.179 -0.127,0.535 -0.312,0.383 -0.088,-0.072 -0.033,-0.204 0.017,-0.267 0.074,-0.093 0.148,-0.102 0.295,-0.116zm13.111 -10.405l-0.22 0.472c-0.402,0.319 -0.071,-0.797 0.038,-0.863 0.265,-0.161 0.226,0.265 0.182,0.391zm1.46 -0.659c-0.027,-0.374 0.062,-0.288 0.329,-0.695 0.024,-0.037 0.053,-0.075 0.079,-0.111 0.425,-0.623 0.534,-0.496 0.87,-0.887 0.12,-0.141 0.316,-0.432 0.505,-0.472 0.043,0.214 0.063,0.215 -0.017,0.396l-0.187 0.323c-0.241,0.388 -0.825,0.942 -1.219,1.253 -0.182,0.143 -0.084,0.158 -0.36,0.193zm-33.18 16.019c-0.686,-6.979 21.765,-30.776 6.491,4.035 -0.166,0.285 -0.266,0.394 -0.561,0.589 -0.201,0.131 -0.464,0.366 -0.674,0.448 -0.312,0.12 -0.556,0.163 -0.901,0.254 -0.512,0.136 -0.554,0.109 -0.949,-0.018 -0.793,-0.252 -0.995,-0.037 -2.457,-0.709 -0.47,-0.216 -0.987,-0.411 -1.24,-0.986 -0.312,-0.707 -0.26,-0.594 -0.183,-1.426 0.017,-0.182 0.024,-0.264 0.109,-0.441 0.128,-0.268 0.289,-0.327 0.305,-0.734 0.007,-0.191 -0.042,-0.373 -0.009,-0.55 0.039,-0.204 0.087,-0.192 0.069,-0.462zm19.395 -14.972c0.267,0.197 0.405,0.225 0.116,0.486 -0.315,0.284 -0.329,0.843 -0.792,0.913 -0.081,-0.771 0.28,-0.46 0.227,-1.067 -0.084,-0.98 -0.101,-0.526 0.069,-1.194 0.137,-0.54 0.194,-0.959 0.6,-1.384 0.147,-0.154 0.148,-0.259 0.437,-0.295 0.054,0.422 -0.018,0.336 -0.142,0.616 -0.398,0.897 -0.66,1.019 -0.515,1.925zm1.677 -3.253c0.074,0.122 0.099,0.255 0.058,0.434l-0.334 0.755c-0.071,0.113 -0.19,0.719 -0.407,1.196 -0.066,0.144 -0.424,0.57 -0.627,0.478 -0.162,-0.075 -0.081,-0.252 -0.042,-0.382 0.053,-0.174 0.03,-0.316 0.078,-0.455 0.047,-0.133 0.135,-0.272 0.207,-0.395 0.027,-0.043 0.066,-0.094 0.089,-0.137 0.118,-0.217 0.378,-0.707 0.416,-0.911 0.039,-0.214 0.075,-0.237 0.224,-0.347 0.328,-0.241 0.096,-0.191 0.338,-0.236zm10.225 8.238c-0.002,-0.386 0.166,-0.177 0.147,-0.601 -0.468,0.162 -1.401,1.652 -1.806,2.095 -0.155,0.169 -0.262,0.227 -0.448,0.373 -0.353,0.278 -0.528,0.532 -0.84,0.784 -0.257,0.208 -1.556,1.226 -1.76,1.455 -0.327,0.365 -0.294,0.459 -0.841,0.747 -0.46,0.242 -1.284,0.945 -1.931,1.313 -0.341,0.195 -0.737,0.369 -1.066,0.556 -0.718,0.41 -1.5,0.819 -2.51,0.719 -0.444,-0.044 -0.798,-0.085 -1.02,-0.52 -0.248,-0.484 -0.119,-0.984 -0.163,-1.498 -0.019,-0.224 -0.073,-0.53 -0.063,-0.745 0.006,-0.129 0.071,-0.52 -0.068,-0.719 -0.115,-0.163 -0.074,0.013 -0.13,-0.27 -0.087,-0.439 -0.199,-0.698 0.373,-0.745 0.062,-0.286 0.077,-0.633 0.189,-0.925 0.051,-0.133 0.057,-0.186 0.092,-0.313 0.072,-0.256 0.117,-0.274 0.18,-0.588 0.038,-0.195 0.061,-0.178 0.114,-0.301l0.824 -1.969c0.159,-0.358 0.284,-0.789 0.502,-1.105 0.079,-0.112 0.068,-0.069 0.125,-0.245 0.082,-0.252 0.099,-0.316 0.271,-0.514 0.12,-0.138 0.064,-0.1 0.137,-0.28 0.08,-0.198 0.477,-0.68 0.624,-0.996 0.177,-0.381 0.506,-0.589 0.8,-0.863 0.334,-0.312 0.054,-0.377 0.445,-0.415 0.045,0.629 -0.195,0.834 -0.295,1.35 -0.143,0.742 0.016,0.62 -0.29,1.367 -0.12,0.293 -0.19,0.659 -0.253,0.959 -0.087,0.411 -0.074,0.616 0.158,1.008 0.148,0.25 0.279,0.271 0.563,0.151 0.712,-0.302 0.59,-0.719 0.803,-1.317 0.041,-0.113 0.06,-0.17 0.082,-0.313 0.117,-0.766 0.745,-2.971 0.757,-3.405 0.014,-0.531 0.257,-0.829 0.381,-1.309 0.225,-0.87 0.263,-0.584 0.763,-1.155l0.327 -0.342c0.31,-0.329 0.927,-0.717 1.365,-0.885 0.437,-0.168 1.092,-0.553 1.455,-0.825 0.197,-0.148 0.412,-0.144 0.653,-0.245 0.523,-0.217 1.854,-0.731 2.236,-0.286 0.183,0.213 0.236,1.184 0.194,1.552 -0.023,0.211 -0.102,0.411 -0.144,0.651 -0.152,0.864 -0.355,1.189 -0.597,1.941 -0.098,0.305 -0.017,0.338 -0.216,0.608 -0.311,0.421 -0.595,1.247 -0.835,1.738 -0.096,0.197 -0.209,0.343 -0.31,0.528 -0.082,0.151 -0.179,0.434 -0.242,0.62 -0.164,0.49 -0.134,0.945 0.38,1.085 0.521,0.141 0.869,-0.479 1.019,-0.701 0.253,-0.376 0.523,-0.582 0.746,-0.993 0.127,-0.235 0.251,-0.333 0.345,-0.498 0.179,-0.313 0.362,-0.832 0.707,-1.03 0.402,-0.231 0.906,-0.8 0.966,-0.818 0.17,-0.05 0.205,0.056 0.201,0.222 -0.002,0.12 -0.197,0.369 -0.266,0.602 -0.034,0.113 -0.072,0.184 -0.115,0.29l-0.249 0.62c-0.199,0.514 -0.158,0.555 -0.461,1.226 -0.131,0.238 -0.27,0.473 -0.389,0.717l-1.297 2.105c-0.083,0.159 -0.098,0.305 -0.319,0.352zm-14.699 -6.333c-0.016,-0.203 0.139,-0.52 0.228,-0.675 0.252,-0.44 0.129,-0.6 0.38,-0.99l0.724 -1.58c0.187,-0.479 0.485,-0.61 0.574,-0.827 0.095,-0.236 -0.007,-0.293 0.193,-0.575 0.138,-0.194 0.132,-0.22 0.363,-0.243 0.098,0.718 -0.179,0.665 -0.241,1.107 -0.02,0.134 -0.007,0.262 -0.027,0.397 -0.041,0.287 -0.145,0.587 -0.296,0.831 -0.109,0.178 -0.051,-0.061 -0.249,0.447 -0.306,0.785 0.355,0.613 -0.811,1.504l-0.502 0.451c-0.126,0.108 -0.095,0.141 -0.336,0.153zm30.506 -5.287c-0.022,-0.324 0.08,-0.59 0.293,-0.774 0.183,-0.159 0.075,-0.146 0.377,-0.46 0.386,-0.403 0.773,-1.191 1.089,-1.271 0.017,0.228 0.022,0.094 -0.085,0.31l-0.852 1.421c-0.078,0.109 -0.146,0.188 -0.243,0.282 -0.321,0.31 -0.214,0.304 -0.579,0.492zm-13.928 4.595c-0.025,-0.321 0.162,-0.689 0.256,-0.994 0.248,-0.798 0.545,-2.428 0.165,-3.113 -0.143,-0.257 -0.49,-0.699 -0.765,-0.841 -0.227,-0.118 -0.427,-0.226 -0.67,-0.243 -1.474,-0.105 -1.972,0.257 -3.152,0.752 -0.372,0.156 -0.515,0.291 -0.842,0.477 -0.541,0.307 -1.377,0.736 -1.795,1.156l-0.185 0.164c-0.473,0.235 0.036,-0.777 0.103,-0.969 0.024,-0.066 0.043,-0.138 0.064,-0.205 0.067,-0.185 0.102,-0.26 0.142,-0.482 0.056,-0.317 0.016,-0.204 0.143,-0.454 0.228,-0.446 0.246,-0.881 0.789,-1.095 0.107,-0.042 0.131,-0.063 0.236,-0.107 1.148,-0.484 1.731,-0.878 3.073,-1.25 0.685,-0.19 1.587,-0.55 2.192,-0.481 0.813,0.093 1.35,0.208 1.767,0.725 0.779,0.963 0.481,0.62 0.676,1.354 0.163,0.611 0.292,0.894 0.147,1.691 -0.061,0.332 -0.04,0.773 -0.071,1.118 -0.034,0.378 -0.052,0.606 -0.304,0.923l-0.977 0.98c-0.131,0.12 -0.228,0.179 -0.341,0.284 -0.128,0.119 -0.167,0.201 -0.264,0.335 -0.195,0.267 -0.207,0.249 -0.387,0.275zm21.121 -9.276c-0.007,-0.319 0.04,-0.142 0.118,-0.371 0.125,-0.37 -0.267,-0.463 0.183,-0.985 0.226,-0.263 0.668,-0.797 0.994,-0.848 0.017,0.269 -0.012,0.165 -0.086,0.339l-0.083 0.199c-0.363,0.585 -0.1,0.087 -0.32,0.682 -0.162,0.44 -0.278,0.914 -0.806,0.984zm-17.764 20.207c-0.318,-0.074 -0.166,-0.797 -0.438,-1.447 -0.075,-0.178 -0.001,0.085 -0.067,-0.122 -0.102,-0.319 0.048,-0.398 -0.251,-0.768 -0.052,-0.066 -0.057,-0.065 -0.079,-0.15 -0.049,-0.196 -0.014,-0.215 -0.11,-0.392 -0.172,-0.318 -0.256,-0.79 -0.114,-1.15l0.142 -0.317c0.262,-0.456 0.155,-1.146 0.569,-1.23 0.045,0.469 -0.305,2.282 -0.103,2.708 0.145,-0.062 0.084,0.016 0.154,-0.11 0.048,-0.084 0.006,-0.082 0.035,-0.23l0.461 -2.071c0.167,-0.836 0.506,-1.626 0.642,-2.42 0.047,-0.272 0.116,-0.474 0.166,-0.73l0.456 -1.683 0.633 -1.601c0.051,-0.172 0.163,-0.504 0.259,-0.656 0.338,-0.537 0.007,-0.529 0.529,-1.255l0.737 -1.438c0.415,-1.053 0.214,-0.201 0.634,-1.166 0.231,-0.528 0.209,-0.205 0.475,-0.907 0.173,-0.457 0.439,-0.762 0.655,-1.155l0.766 -1.017c0.287,-0.422 0.333,-0.268 0.627,-0.743 0.084,-0.137 0.115,-0.156 0.2,-0.27l0.827 -1.012c0.286,-0.308 0.428,-0.092 0.321,0.231 -0.072,0.216 -0.99,2.267 -1.018,2.485 -0.053,0.405 -0.013,0.403 -0.167,0.736 -0.397,0.856 -0.582,1.93 -0.891,2.653l-0.421 1.297c-0.198,0.589 -0.364,0.878 -0.533,1.426 -0.136,0.443 -0.214,0.422 -0.418,1.174 -0.12,0.445 -0.332,0.87 -0.473,1.301 -0.44,1.346 -0.396,1.335 -0.933,2.576 -0.178,0.41 -0.253,0.883 -0.413,1.352 -0.23,0.678 -0.937,2.222 -1.027,2.535 -0.137,0.473 -0.355,0.828 -0.545,1.25 -0.042,0.094 -0.069,0.204 -0.111,0.296l-0.541 0.86c-0.1,0.13 -0.097,0.107 -0.218,0.217 -0.13,0.118 -0.238,0.448 -0.274,0.638 -0.037,0.194 -0.031,0.246 -0.143,0.305zm-12.961 -15.867c-0.044,-0.363 0.209,-0.315 0.425,-0.818 0.057,-0.161 0.114,-0.342 0.194,-0.49 0.12,-0.222 0.24,-0.378 0.358,-0.605 0.265,-0.508 0.324,-0.535 0.518,-0.977 0.034,-0.077 0.119,-0.213 0.183,-0.276 0.435,-0.428 0.094,-0.074 0.396,-0.588 0.144,-0.244 0.284,-0.316 0.418,-0.569 0.125,-0.237 0.149,-0.441 0.508,-0.483 0.089,0.793 -0.493,1.112 -0.595,1.802 -0.017,0.113 -0.046,0.222 -0.086,0.355 -0.077,0.257 -0.152,0.48 -0.182,0.756 -0.139,1.275 -0.622,1.063 -1.408,1.594 -0.274,0.186 -0.271,0.287 -0.729,0.299zm-9.517 7.877c-0.038,-0.048 -0.025,-0.003 -0.054,-0.096 -0.004,-0.012 -0.014,-0.068 -0.017,-0.086 -0.062,-0.374 0.034,-1.662 0.088,-2.018 0.119,-0.796 -0.1,-1.446 0.056,-2.21l0.548 -2.583c0.117,-0.422 0.183,-0.875 0.283,-1.286 0.035,-0.147 0.061,-0.189 0.098,-0.304 0.027,-0.083 0.036,-0.232 0.063,-0.344 0.157,-0.646 0.381,-1.131 0.54,-1.81 0.043,-0.182 0.08,-0.48 0.142,-0.669 0.08,-0.245 0.132,-0.289 0.182,-0.583 0.079,-0.464 0.223,-0.779 0.335,-1.245 0.182,-0.765 0.318,-1.514 0.532,-2.252l0.266 -0.519c0.35,-0.423 0.684,-0.424 1.01,-0.677 0.245,-0.191 0.595,-0.283 0.855,-0.43l1.128 -0.587c0.2,-0.109 0.353,-0.165 0.575,-0.262 0.189,-0.082 0.336,-0.193 0.567,-0.277 0.443,-0.16 0.785,-0.374 1.153,-0.57 0.571,-0.305 1.132,-0.628 1.73,-0.872 0.33,-0.135 0.583,-0.378 1.141,-0.583 0.215,-0.079 0.374,-0.19 0.557,-0.276 0.208,-0.098 0.434,-0.157 0.65,-0.25 0.231,-0.099 0.285,-0.197 0.538,-0.312 0.375,-0.171 0.77,-0.396 1.186,-0.542 0.303,-0.107 0.811,-0.405 1.145,-0.568 0.631,-0.307 1.174,-0.514 1.761,-0.846 0.431,-0.245 1.309,-0.732 1.704,-0.862 0.396,-0.131 0.863,-0.369 1.172,-0.55 0.723,-0.425 1.678,-0.701 2.471,-1.005 0.231,-0.089 0.409,-0.187 0.65,-0.252 0.28,-0.075 0.579,-0.143 0.813,-0.267l0.374 -0.257c0.172,-0.106 0.372,-0.172 0.599,-0.249 0.659,-0.222 0.839,-0.508 1.741,-0.814l2.351 -1.105c0.852,-0.644 1.965,-0.878 2.888,-1.399 0.225,-0.126 0.597,-0.19 1.193,-0.536l1.192 -0.529c0.229,-0.105 0.406,-0.162 0.633,-0.273 0.392,-0.192 1.534,-1.151 1.096,-0.053 -0.164,0.411 -0.254,0.815 -0.352,1.231 -0.06,0.253 -0.146,0.388 -0.207,0.606 -0.054,0.192 -0.054,0.435 -0.144,0.623 -0.352,0.731 -0.511,1.634 -0.76,2.408 -0.253,0.787 -0.365,1.757 -0.602,2.542 -0.059,0.196 -0.143,0.359 -0.187,0.581 -0.208,1.06 -0.254,0.959 -0.483,1.867 -0.105,0.419 -0.228,0.79 -0.362,1.214 -0.121,0.385 -0.238,0.865 -0.309,1.261 -0.044,0.248 -0.036,0.494 -0.082,0.716 -0.028,0.141 -0.165,0.354 -0.227,0.549 -0.286,0.907 -0.31,0.947 -0.896,1.573 -0.262,0.279 -0.606,0.524 -0.868,0.8 -0.418,0.441 -0.709,0.812 -1.206,1.222 -0.483,0.397 -0.738,0.926 -1.161,1.344 -0.081,0.08 -0.147,0.131 -0.221,0.206 -0.516,0.517 -0.823,1.08 -1.322,1.561 -0.504,0.487 -0.83,1.068 -1.336,1.547 -0.228,0.216 -0.369,0.45 -0.593,0.64 -0.313,0.265 -0.515,0.571 -0.829,0.836 -0.194,0.164 -0.359,0.326 -0.494,0.541 -0.112,0.181 -0.067,0.235 -0.33,0.255 -0.091,-0.457 -0.012,-1.358 -0.187,-1.962 -0.023,-0.078 -0.098,-0.283 -0.142,-0.402 -0.129,-0.356 -0.346,-0.668 -0.576,-0.974l-1.071 -0.952c-0.856,-0.546 -2.362,-0.569 -3.379,-0.365 -0.314,0.063 -0.493,0.185 -0.737,0.301 -0.51,0.243 -1.137,0.245 -1.649,0.505 -0.247,0.125 -0.429,0.243 -0.69,0.347 -0.352,0.139 -0.825,0.28 -1.096,0.478 -0.449,0.329 -0.47,-0.167 -0.362,-0.486 0.138,-0.407 0.216,-1.011 0.317,-1.451 0.046,-0.2 0.072,-0.235 0.114,-0.381 0.262,-0.926 0.368,-2.274 0.725,-3.154 0.094,-0.231 0.267,-0.401 0.169,-0.763 -0.019,-0.036 -0.624,-0.719 -1.29,0.064 -0.286,0.335 -8.145,7.065 -8.567,7.575 -0.295,0.358 7.075,-5.166 6.858,-4.735 -0.144,0.287 -0.386,0.458 -0.568,0.752 -0.181,0.291 -0.324,0.53 -0.508,0.794l-1.442 2.454c-0.072,0.16 -0.126,0.287 -0.164,0.476 -0.059,0.291 -0.059,0.243 -0.185,0.455 -0.337,0.572 -0.326,0.856 -0.885,1.7 -0.201,0.303 -0.214,0.536 -0.477,0.826 -0.306,0.338 -0.854,0.591 -1.183,0.929 -0.147,0.151 -0.211,0.182 -0.428,0.197 -0.045,-0.384 0.036,-0.34 0.069,-0.609 0.028,-0.234 -0.018,-0.386 0.029,-0.631 0.04,-0.209 0.094,-0.33 0.122,-0.548 0.046,-0.369 0.005,-1.284 0.079,-1.895 0.048,-0.396 0.344,-0.64 0.184,-1.063 -0.118,-0.313 -0.575,-0.473 -0.971,-0.402 -0.417,0.074 -0.373,0.511 -0.576,0.82l-1 1.736c-0.312,0.661 -0.599,1.209 -0.948,1.823 -0.176,0.311 -0.262,0.603 -0.41,0.961 -0.147,0.356 -0.314,0.539 -0.455,0.886 -0.275,0.683 -0.547,1.286 -0.817,1.925l-0.649 1.424c-0.079,0.176 -0.077,0.357 -0.218,0.43zm41.874 -41.452c1.384,0.757 0.777,0.009 2.301,1.695 0.164,0.181 0.293,0.306 0.471,0.417 0.098,0.628 0.303,1.279 0.214,1.849 -0.081,0.519 -0.21,1.059 -0.251,1.571 -0.046,0.573 -0.224,0.961 -0.321,1.517 -0.069,0.398 -0.254,0.686 -0.395,1.025 -0.05,0.119 -0.059,0.23 -0.105,0.346 -0.164,0.415 -0.434,0.87 -0.622,1.267 -0.228,0.485 -0.426,0.78 -0.711,1.197l-1.431 2.38c-0.147,0.219 -0.302,0.339 -0.451,0.541l-0.331 0.592c-0.166,0.313 -0.181,0.334 -0.424,0.569 -0.172,0.167 -0.243,0.339 -0.379,0.55 -0.242,0.378 -0.573,0.728 -0.835,1.092 -0.157,0.217 -0.269,0.357 -0.441,0.551 -0.302,0.341 -0.657,0.638 -0.898,1.033 -0.331,0.542 -0.838,1.113 -1.209,1.655 -0.167,0.244 -0.332,0.341 -0.462,0.533 -0.07,0.104 -0.091,0.205 -0.155,0.304 -0.089,0.135 -0.154,0.115 -0.276,0.213 -0.649,0.516 -0.401,0.946 -0.938,0.998 -0.07,-0.438 0.083,-0.652 0.178,-0.98 0.09,-0.307 0.098,-0.598 0.207,-0.912l0.465 -1.782c0.043,-0.271 0.051,-0.224 0.145,-0.447 0.17,-0.402 0.178,-1.001 0.327,-1.381 0.159,-0.404 0.371,-1.34 0.441,-1.807l0.52 -1.784c0.291,-0.915 0.211,-0.983 0.427,-1.812 0.045,-0.173 0.09,-0.268 0.154,-0.441 0.067,-0.233 0.142,-0.471 0.201,-0.706 0.123,-0.494 0.476,-0.824 0.851,-1.162 0.094,-0.085 0.119,-0.082 0.199,-0.137l0.075 -0.062c0.134,-0.1 0.406,-0.162 0.579,-0.171 0.081,0.077 0.13,0.14 0.152,0.263 0.029,0.165 0.022,0.429 0.19,0.519 0.265,0.142 0.422,-0.249 0.516,-0.48 0.433,-1.059 0.573,-0.718 1.071,-1.022 0.234,-0.143 0.373,-0.36 0.326,-0.701 -0.145,-1.056 -1.698,-0.207 -2.174,-0.029 -0.09,0.033 -0.621,0.376 -0.698,0.241 -0.077,-0.135 -0.114,-0.081 -0.093,-0.289 0.003,-0.034 0.029,-0.182 0.039,-0.243 0.079,-0.476 0.271,-0.9 0.392,-1.362l0.199 -0.581c0.175,-0.363 0.206,-0.788 0.32,-1.198 0.05,-0.183 0.072,-0.291 0.152,-0.441l0.144 -0.195c0.117,-0.13 0.195,-0.44 0.249,-0.609 0.088,-0.274 0.167,-0.527 0.331,-0.77 0.133,-0.197 0.208,-0.335 0.384,-0.467 0.607,-0.515 0.679,-1.331 1.38,-0.947zm-3.775 19.234c0.045,-0.058 0.062,-0.074 0.099,-0.135l0.559 -0.801c0.194,-0.258 0.469,-0.466 0.592,-0.77 0.232,-0.571 0.53,-0.892 0.971,-1.286 0.117,-0.105 0.1,-0.168 0.197,-0.271 0.082,-0.086 0.081,-0.051 0.134,-0.106l0.81 -1.199c0.149,-0.184 0.261,-0.286 0.403,-0.491l1.05 -1.695c0.116,-0.207 0.29,-0.369 0.363,-0.522l2.056 -4.385c0.09,-0.15 0.088,-0.309 0.142,-0.491 0.066,-0.223 0.182,-0.449 0.224,-0.637 0.033,-0.14 0.031,-0.245 0.07,-0.378 0.067,-0.228 0,-0.574 0.048,-0.782 0.049,-0.209 0.063,-0.087 0.15,-0.31 0.246,-0.629 0.055,-1.871 -0.108,-2.477 -0.03,-0.109 -0.071,-0.268 -0.123,-0.383 -0.072,-0.159 -0.121,-0.153 -0.186,-0.288 -0.107,-0.223 -0.055,-0.41 -0.222,-0.752 -0.316,-0.647 -1.36,-1.335 -2.06,-1.547 -0.44,-0.133 -0.764,-0.168 -1.349,-0.36 -1.83,-0.598 -3.326,2.73 -3.856,4.021 -0.163,0.452 -0.285,0.794 -0.379,1.248 -0.085,0.407 -0.363,0.754 -0.456,1.23l-0.328 1.292c-0.135,0.444 -0.172,0.994 -0.525,1.188 -0.185,0.103 -0.414,0.183 -0.647,0.256 -0.624,0.195 -1.215,0.655 -1.762,0.885 -0.828,0.366 -1.671,0.726 -2.482,1.128 -0.356,0.176 -0.893,0.363 -1.27,0.516 -0.432,0.175 -0.748,0.4 -1.159,0.604 -0.416,0.207 -0.826,0.326 -1.216,0.561 -0.219,0.132 -0.33,0.208 -0.582,0.345 -0.739,0.401 -1.659,0.813 -2.475,1.087 -0.644,0.217 -1.168,0.656 -1.806,0.861 -0.927,0.299 -1.777,0.591 -2.622,1.004l-2.425 1.133c-0.221,0.078 -1.272,0.633 -1.843,0.864 -0.209,0.085 -0.346,0.215 -0.596,0.297l-2.35 1.176c-0.825,0.371 -1.684,0.766 -2.461,1.15 -0.569,0.281 -1.173,0.621 -1.779,0.879 -0.277,0.118 -0.358,0.149 -0.577,0.295 -1.097,0.728 -0.625,0.354 -1.199,0.63 -0.231,0.111 -0.298,0.214 -0.562,0.317 -0.602,0.237 -1.216,0.598 -1.789,0.872 -0.451,0.216 -0.919,0.56 -1.184,0.587 -0.053,-0.472 0.17,-0.599 0.263,-0.965 0.047,-0.185 0.034,-0.326 0.074,-0.513l0.761 -2.184c0.062,-0.144 0.09,-0.299 0.143,-0.449 0.049,-0.135 0.104,-0.253 0.175,-0.426l0.337 -0.846c0.347,-1.023 0.937,-2.485 1.346,-3.446 0.13,-0.306 0.179,-0.588 0.307,-0.872l0.735 -1.654c0.183,-0.401 0.271,-0.907 0.5,-1.282 0.129,-0.212 0.091,-0.179 0.189,-0.405 0.178,-0.412 0.386,-0.847 0.511,-1.313l0.284 -0.897c0.063,-0.149 0.097,-0.276 0.143,-0.446 0.081,-0.304 0.156,-0.715 -0.044,-1.016 -0.19,-0.286 -0.464,-0.344 -0.864,-0.153 -0.311,0.149 -0.376,0.426 -0.488,0.712 -0.528,1.346 -0.295,1.012 -0.538,1.811 -0.156,0.516 -0.158,0.233 -0.257,0.912 -0.034,0.243 -0.242,0.634 -0.342,0.895 -0.111,0.291 -0.185,0.599 -0.299,0.881l-0.753 1.641c-0.357,0.57 -0.477,0.952 -0.762,1.628 -0.119,0.284 -0.201,0.521 -0.331,0.852 -0.125,0.317 -0.177,0.569 -0.313,0.875 -1.114,2.498 -2.208,5.006 -3.31,7.51 -0.293,0.583 -0.194,0.679 -0.905,0.949 -0.472,0.18 -2.441,1.269 -2.904,1.558l-2.508 1.372c-0.13,0.079 -0.219,0.166 -0.372,0.256 -0.266,0.157 -0.565,0.292 -0.795,0.472 -0.502,0.391 -1.574,0.786 -2.366,1.437 -0.136,0.111 -0.229,0.147 -0.384,0.251 -0.262,0.178 -0.552,0.303 -0.833,0.441 -0.297,0.146 -0.47,0.333 -0.776,0.491 -0.35,0.18 -0.438,0.164 -0.849,0.42 -0.28,0.174 -0.592,0.248 -0.856,0.429 -0.252,0.172 -0.464,0.374 -0.746,0.519 -0.289,0.148 -0.641,0.236 -0.901,0.378 -0.27,0.147 -0.429,0.403 -0.651,0.596 -0.25,0.216 -0.514,0.275 -0.817,0.459 -1.939,1.175 0.394,0.703 1.352,0.523 0.195,-0.096 0.382,-0.204 0.525,-0.324 0.446,-0.371 0.957,-0.459 1.423,-0.795l0.811 -0.463c0.214,-0.111 0.335,-0.204 0.575,-0.311 0.2,-0.089 0.376,-0.196 0.584,-0.301l1.381 -0.769c0.705,-0.346 0.696,-0.449 1.206,-0.775l0.664 -0.405c0.551,-0.314 0.458,-0.319 1.153,-0.614 0.278,-0.119 0.327,-0.254 0.515,-0.35 0.123,-0.063 0.192,-0.056 0.322,-0.134l1.344 -0.803c0.327,-0.269 0.773,-0.366 1.081,-0.628 0.177,-0.15 0.462,-0.255 0.66,-0.365l0.182 -0.115c0.108,-0.064 0.165,-0.091 0.287,-0.151 0.664,-0.323 0.513,-0.305 0.821,-0.497 0.245,-0.153 0.438,0.005 0.315,0.302 -0.039,0.096 -0.086,0.131 -0.155,0.259 -0.167,0.304 -0.347,1.006 0.031,1.212 0.166,0.09 0.423,0.125 0.658,0.091 0.195,-0.109 0.031,-0.258 0.353,-0.317 0.273,0.817 -0.248,1.835 -0.427,2.551 -0.131,0.528 -0.08,0.628 -0.284,1.243l-0.582 2.467c-0.11,0.668 -0.28,1.904 -0.602,2.461 -0.2,0.348 -0.686,0.406 -1.108,0.565 -0.387,0.146 -2.295,1.886 -2.65,2.247 -0.268,0.272 -0.59,0.504 -0.824,0.795 -0.236,0.295 -0.552,0.517 -0.795,0.822 -0.254,0.32 -0.482,0.494 -0.741,0.864 -0.17,0.244 -0.152,0.216 -0.411,0.403 -0.496,0.359 -0.675,0.877 -1.11,1.297 -0.572,0.551 -0.813,1.337 -1.351,1.883 -0.38,0.387 -0.723,0.899 -1.021,1.367 -0.286,0.45 -0.386,0.383 -0.604,0.973l-0.282 0.512c-0.28,0.32 -0.343,0.675 -0.555,1.015 -0.202,0.325 -0.096,0.434 -0.523,1.047 -0.455,0.653 -1.28,2.347 -1.572,3.123 -0.291,0.776 -0.53,1.499 -0.8,2.293 -0.144,0.423 -0.255,0.736 -0.18,1.321 0.053,0.411 0.176,0.572 0.443,0.816l0.886 0.719c0.134,0.128 0.283,0.254 0.422,0.378 0.204,0.218 0.482,0.344 0.542,0.68 -0.232,0.02 -0.32,-0.027 -0.523,-0.114 -0.228,-0.097 -0.464,-0.181 -0.696,-0.268 -0.004,-0.009 -0.018,0.005 -0.026,0.009 -0.02,0.1 0.047,0.17 0.127,0.243 0.092,0.086 0.135,0.119 0.227,0.193 0.089,0.073 0.154,0.108 0.246,0.181 0.084,0.067 0.078,0.074 0.129,0.121l0.331 0.26c0.437,0.264 0.976,0.421 1.464,0.578 0.23,0.058 0.473,0.067 0.667,0.147 0.212,0.088 0.745,0.178 1.005,0.173 0.715,-0.015 0.586,0.104 1.039,0.004 0.609,-0.133 1.236,-0.038 2.08,-0.618 0.265,-0.181 0.607,-0.361 0.785,-0.636 0.452,-0.614 0.716,-1.013 1.03,-1.73 0.08,-0.182 0.201,-0.3 0.317,-0.514l0.465 -1.174c0.114,-0.391 0.194,-0.866 0.341,-1.215 0.232,-0.549 0.637,-1.82 0.774,-2.428 0.172,-0.765 0.553,-1.711 0.728,-2.466 0.056,-0.236 0.109,-0.399 0.169,-0.658 0.078,-0.328 0.024,-0.345 0.244,-0.526 0.326,-0.037 0.578,0.062 0.826,-0.199 0.225,-0.236 0.304,-0.739 0.445,-1.059 0.153,-0.344 0.231,-0.753 0.347,-1.103 0.095,-0.287 0.135,-0.488 0.185,-0.812 0.099,-0.641 0.419,-1.095 0.505,-1.438 0.128,-0.508 0.377,-0.915 0.564,-1.403l1.144 -1.835c0.17,-0.24 0.226,-0.376 0.435,-0.6 0.22,-0.236 0.297,-0.185 0.486,-0.507 0.083,-0.142 0.395,-0.392 0.562,-0.492 0.232,-0.139 0.33,-0.402 0.593,-0.442 0.06,0.503 -0.163,1.368 -0.29,1.852 -0.158,0.6 -0.238,1.209 -0.252,1.875 -0.007,0.322 0.003,0.442 0.188,0.606 0.084,0.073 0.317,0.303 0.425,0.309 0.265,0.016 0.757,-0.472 0.872,-0.637l0.503 -0.966c0.342,-0.817 0.707,-1.083 0.956,-1.983 0.056,-0.202 0.14,-0.33 0.261,-0.493 0.221,-0.298 0.369,-0.622 0.531,-0.948 0.151,-0.304 0.39,-0.666 0.495,-0.984 0.148,-0.452 0.315,-0.514 0.485,-0.992 0.147,-0.415 0.395,-0.839 0.611,-1.23 0.287,-0.52 0.285,-0.685 0.817,-1.066 0.351,-0.25 0.467,-0.461 0.882,-0.659 0.186,-0.089 0.357,-0.18 0.492,-0.292 0.174,-0.145 0.276,-0.238 0.546,-0.261 0.067,0.433 -0.135,0.618 -0.259,1.011l-0.434 1.465c-0.048,0.202 -0.027,0.321 -0.114,0.516 -0.139,0.313 -0.405,0.402 -0.668,0.672 -0.246,0.252 -0.378,0.441 -0.645,0.686 -0.262,0.238 -0.337,0.492 -0.558,0.751 -0.264,0.31 -0.389,0.361 -0.603,0.713 -0.228,0.376 -0.524,0.77 -0.69,1.21 -0.081,0.215 -0.117,0.245 -0.248,0.408l-0.262 0.392c-0.086,0.135 -0.166,0.288 -0.243,0.408 -0.377,0.588 -0.576,1.002 -0.887,1.695l-0.414 0.875c-0.156,0.33 -0.243,0.529 -0.346,0.926 -0.25,0.961 -0.624,1.356 -0.542,1.943 0.308,-0.113 0.276,-0.31 0.422,-0.56 0.058,-0.1 0.114,-0.157 0.187,-0.282 0.216,-0.373 0.344,-0.063 0.291,0.196 -0.023,0.109 -0.048,0.205 -0.069,0.302 -0.061,0.288 -0.011,0.041 -0.104,0.254l-0.202 0.572c-0.071,0.267 -0.496,1.053 -0.66,1.234 -0.115,0.128 -0.251,0.25 -0.309,0.431 -0.099,0.309 -0.134,0.989 -0.101,1.335 0.007,0.069 0.352,1.215 0.379,1.261 0.248,0.432 0.599,0.425 0.821,0.744 0.274,0.394 0.44,0.432 0.931,0.587 0.193,0.061 1.058,0.137 1.293,0.096 0.166,-0.029 0.186,-0.061 0.372,-0.093l2.133 -0.7c0.099,-0.054 0.137,-0.113 0.24,-0.187 0.23,-0.163 0.534,-0.286 0.77,-0.41 0.157,-0.082 0.139,-0.06 0.274,-0.159l0.686 -0.478c0.62,-0.46 0.763,-0.442 1.449,-0.978 0.164,-0.128 0.249,-0.224 0.397,-0.363l3.246 -3.014c0.409,-0.385 0.401,-0.481 0.725,-0.835 0.154,-0.168 0.273,-0.221 0.427,-0.384 0.322,-0.343 0.684,-0.898 0.951,-1.335 0.185,-0.301 0.407,-0.518 0.648,-0.903 0.386,-0.614 0.851,-1.155 1.216,-1.812 0.328,-0.59 0.762,-1.318 0.98,-2.053 0.072,-0.243 0.105,-0.378 0.193,-0.589 0.079,-0.187 0.114,-0.367 0.182,-0.543l0.606 -1.63c0.108,-0.27 0.168,-0.16 0.209,-0.517 0.04,-0.345 0.099,-0.31 0.204,-0.57 0.102,-0.253 0.255,-0.532 0.445,-0.721 0.158,-0.157 0.267,-0.359 0.38,-0.547 0.11,-0.187 0.344,-0.287 0.462,-0.496 0.107,-0.191 0.086,-0.313 0.253,-0.482 0.199,-0.029 0.281,-0.046 0.31,0.162 0.042,0.304 -0.717,1.63 -0.944,1.957 -0.475,0.686 -0.66,1.637 -0.935,2.397 -0.481,1.328 -0.408,1.397 -0.749,2.543 -0.195,0.653 -0.256,1.359 -0.468,2.002 -0.088,0.267 -0.09,0.375 -0.137,0.668 -0.076,0.466 -0.266,0.878 -0.29,1.361 -0.007,0.135 0.003,0.259 -0.02,0.381 -0.124,0.663 -0.194,2.07 -0.064,2.675 0.044,0.207 0.077,0.571 0.14,0.766 0.09,0.273 0.259,0.269 0.31,0.587 0.06,0.375 0.047,0.477 0.211,0.73 0.083,0.129 0.282,0.383 0.392,0.462 0.265,0.193 0.617,0.184 0.909,-0.01 0.365,-0.243 0.601,-0.839 0.76,-1.236 0.32,-0.803 0.234,-0.419 0.585,-1.085 0.014,-0.025 0.068,-0.096 0.093,-0.134 0.07,-0.108 0.015,-0.012 0.077,-0.151 0.048,-0.105 0.082,-0.176 0.145,-0.279 0.469,-0.783 0.959,-1.972 1.332,-2.849l0.928 -2.404c0.326,-0.832 0.557,-1.584 0.898,-2.384 0.355,-0.834 0.56,-1.75 0.839,-2.479 0.284,-0.743 0.705,-1.671 0.882,-2.434 0.195,-0.844 0.59,-1.664 0.783,-2.526 0.088,-0.395 0.328,-0.809 0.398,-1.222 0.067,-0.395 0.582,-1.592 0.612,-1.855 0.039,-0.343 -0.141,-0.504 0.288,-0.545 0.134,0.368 0.192,0.979 0.042,1.343 -0.141,0.344 -0.107,0.777 -0.234,1.156l-0.165 0.553c-0.052,0.202 -0.058,0.413 -0.118,0.601 -0.11,0.347 -0.152,0.78 -0.268,1.114 -0.137,0.392 -0.192,0.707 -0.306,1.134l-0.421 2.358c-0.038,0.462 -0.08,0.851 0.241,1.169 0.133,0.066 0.775,-0.132 0.863,-0.221l0.942 -2.004c0.13,-0.232 0.238,-0.393 0.38,-0.641 0.203,-0.352 0.176,-0.231 0.283,-0.676 0.088,-0.367 0.765,-0.652 1.076,-1.418 0.209,-0.513 0.336,-0.441 0.68,-0.827l0.824 -1.142c0.155,-0.286 0.307,-0.325 0.513,-0.536l0.443 -0.545c0.149,-0.174 0.281,-0.372 0.446,-0.545 0.173,-0.182 0.347,-0.288 0.446,-0.543 0.262,-0.018 0.246,-0.006 0.431,0.06 0.026,0.337 -0.044,0.315 -0.084,0.577 -0.049,0.318 -0.103,0.417 -0.239,0.671l-0.262 0.639c-0.148,0.585 -0.484,1.577 0.557,1.446 0.494,-0.061 1.038,-0.908 1.258,-1.282 0.122,-0.205 1.037,-1.769 1.229,-1.901 0.29,-0.201 0.366,-0.432 0.59,-0.686l0.67 -0.92c0.462,-0.668 0.916,-0.402 1.534,-0.738 0.034,-0.018 0.147,-0.082 0.208,-0.131 0.178,-0.143 0.341,-0.345 0.545,-0.418 0.411,-0.148 0.888,-0.439 1.256,-0.704 0.1,-0.072 0.198,-0.189 0.338,-0.291 0.161,-0.116 0.264,-0.16 0.474,-0.17 0.074,0.583 -0.035,0.605 0.013,0.905 0.178,-0.024 0.078,0.144 0.375,-0.022 0.251,-0.141 0.545,-0.232 0.786,-0.396 0.262,-0.178 0.546,-0.246 0.824,-0.41 0.186,-0.11 0.229,-0.094 0.433,-0.169l0.393 -0.195c0.343,-0.174 0.714,-0.479 1.07,-0.72 0.237,-0.16 0.438,-0.31 0.635,-0.51 0.144,-0.146 0.553,-0.368 0.746,-0.442l1.704 -0.977c0.075,-0.055 0.097,-0.058 0.172,-0.119 0.107,-0.085 0.202,-0.161 0.329,-0.247 0.295,-0.201 0.397,-0.288 0.652,-0.505 0.213,-0.182 0.423,-0.333 0.68,-0.485l0.541 -0.372c0.191,-0.117 0.392,-0.174 0.562,-0.316 0.21,-0.175 0.33,-0.251 0.41,-0.285 0.222,-0.216 0.484,-0.406 0.77,-0.582 0.275,-0.276 0.519,-0.389 0.758,-0.49l1.863 -1.332c0.582,-0.459 1.138,-0.655 1.446,-0.897l0.942 -0.665c0.398,-0.329 0.9,-0.519 1.35,-0.764 0.464,-0.251 0.983,-0.381 1.436,-0.656l2.077 -0.92 1.734 -0.537c0.613,-0.251 1.281,-0.342 1.948,-0.405 -0.47,-0.03 -1.405,0.082 -1.68,0.116 -0.33,0.042 -0.572,0.122 -0.937,0.15 -0.492,0.038 -0.443,0.164 -0.834,0.249 -0.326,0.07 -0.575,0.057 -0.926,0.156 -0.535,0.151 -1.092,0.361 -1.582,0.518 -0.756,0.242 -0.836,0.289 -1.504,0.622 -0.529,0.263 -0.971,0.275 -1.433,0.64 -0.214,0.169 -0.366,0.291 -0.653,0.421 -0.817,0.369 -0.597,0.314 -1.034,0.538l-2.281 1.328c-0.223,0.148 -0.334,0.267 -0.613,0.408 -0.278,0.14 -0.383,0.307 -0.583,0.434 -0.222,0.14 -0.449,0.258 -0.681,0.391l-0.653 0.377c-0.397,0.199 -0.855,0.533 -1.248,0.791 -0.337,0.222 -1.314,1.053 -1.748,1.337 -0.555,0.364 -1.686,0.929 -2.078,1.32l-0.257 0.224c-0.17,0.178 -0.227,0.377 -0.31,0.61l-0.039 0.232 -0.891 0.397c-0.183,0.129 -0.364,0.171 -0.541,0.328 -0.184,0.164 -0.181,0.181 -0.439,0.124 -0.019,-0.246 0.236,-0.404 0.376,-0.649 0.345,-0.609 0.501,-0.617 0.75,-0.99 0.096,-0.142 0.185,-0.261 0.053,-0.49 -0.366,-0.637 -0.826,-0.421 -1.385,-0.16 -0.621,0.291 -1.841,1.448 -2.376,1.94 -0.241,0.222 -0.469,0.402 -0.656,0.672l-0.015 0.394c-0.055,0.049 -0.112,0.09 -0.18,0.135 -0.395,0.26 -0.363,0.318 -0.52,0.416 -0.045,-0.538 0.223,-0.725 0.224,-1.13 0.001,-0.636 -0.815,-0.884 -1.186,-0.455 -0.242,0.279 -0.414,0.498 -0.588,0.813 -0.163,0.294 -0.682,0.85 -0.935,1.143 -0.119,0.138 -0.247,0.214 -0.359,0.352 -0.356,0.436 -0.727,0.938 -0.993,1.447l-0.202 0.518c-0.073,0.156 0.025,-0.082 -0.034,0.065 -0.035,0.087 -0.018,0.037 -0.022,0.112l0.202 0.129c0.088,0.035 0.155,0.038 0.244,0.07 0.036,0.307 0.05,0.168 -0.058,0.337l-0.604 0.628c-0.143,0.161 -0.332,0.121 -0.446,0.373 -0.112,0.247 0.012,0.413 -0.323,0.454 -0.117,-1.026 0.219,-0.866 0.288,-1.27 0.023,-0.135 0.002,0.075 0.01,-0.082 0.002,-0.034 -0.005,-0.107 -0.006,-0.144 -0.015,-0.317 0.104,-0.385 0.16,-0.723 0.039,-0.239 0.219,-0.642 0.312,-0.91 0.062,-0.178 0.1,-0.294 0.158,-0.476 0.065,-0.203 0.134,-0.254 0.165,-0.416 0.072,-0.388 0.119,-0.646 -0.211,-0.835 -0.137,-0.078 -0.407,-0.033 -0.593,0.009 -0.261,0.059 -0.249,0.364 -0.67,0.606 -0.414,0.238 -0.596,0.56 -0.953,0.942 -0.25,0.268 -0.33,0.39 -0.512,0.704 -0.19,0.326 -0.886,0.829 -1.228,1.334 -0.214,0.317 -0.395,0.394 -0.613,0.667 -0.188,0.236 -0.362,0.434 -0.535,0.687 -0.346,0.51 -0.718,0.894 -1.085,1.405l-0.34 0.627c-0.047,0.088 -0.058,0.085 -0.11,0.172l-0.361 0.573c-0.118,0.146 -0.013,0.07 -0.16,0.134 -0.107,-0.097 -0.119,-0.202 -0.101,-0.344 0.048,-0.379 0.235,-0.67 0.269,-1.047 0.05,-0.556 0.162,-0.948 0.243,-1.487 0.041,-0.275 0.017,-0.575 0.068,-0.818 0.134,-0.643 0.105,-1.023 0.201,-1.475 0.112,-0.526 0.094,-1.123 0.055,-1.662 -0.09,-1.256 -0.553,-0.712 0.172,-2.142 0.146,-0.287 0.228,-0.68 0.475,-0.909 0.044,-0.04 0.079,-0.057 0.138,-0.105 0.135,-0.109 0.165,-0.224 0.285,-0.373l0.879 -0.924c0.394,-0.412 1.244,-1.542 1.469,-1.742l1.799 -2.073z"/>
 </g>
</svg>
